<svg version="1.1" id="Layer_1" xmlns="http://www.w3.org/2000/svg" xmlns:xlink="http://www.w3.org/1999/xlink" x="0" y="0" viewBox="0 0 64 64" fill="#fff" xml:space="preserve"><path d="M14.193 9.412C6.367 9.412.001 15.778.001 23.604c0 7.55 5.925 13.742 13.37 14.17.128 1.392.031 5.18-3.599 10.45a1 1 0 00.117 1.274 424.7 424.7 0 013.046 3.075c.84.855 1.224 1.246 1.786 1.756a.997.997 0 001.328.014C22.374 48.84 29.4 37.467 28.384 23.532c-.596-8.182-6.564-14.12-14.19-14.12zm1.21 42.81c-.273-.268-.584-.585-1.042-1.05a417.05 417.05 0 00-2.478-2.507c4.405-6.789 3.573-11.623 3.209-12.317a1.036 1.036 0 00-.899-.55c-6.722 0-12.192-5.47-12.192-12.194 0-6.723 5.47-12.192 12.192-12.192 6.55 0 11.678 5.158 12.197 12.264 1.142 15.674-8.173 25.85-10.988 28.546zM63.9 23.532v-.001c-.597-8.18-6.566-14.12-14.191-14.12-7.826 0-14.193 6.367-14.193 14.193 0 7.55 5.925 13.742 13.37 14.17.13 1.39.032 5.177-3.599 10.45a1 1 0 00.116 1.274c1.48 1.48 2.396 2.413 3.038 3.066.845.861 1.23 1.254 1.795 1.766a1.002 1.002 0 001.328.012c6.326-5.504 13.352-16.876 12.336-30.81zm-12.982 28.69a95.14 95.14 0 01-1.05-1.06c-.556-.566-1.317-1.341-2.47-2.497 4.405-6.79 3.574-11.623 3.21-12.317a1.04 1.04 0 00-.899-.55c-6.724 0-12.193-5.47-12.193-12.194 0-6.723 5.47-12.192 12.193-12.192 6.548 0 11.678 5.158 12.197 12.265 1.142 15.671-8.174 25.85-10.988 28.545z" id="Quotemarks-right"/></svg>