<?xml version="1.0" encoding="utf-8"?><svg xmlns="http://www.w3.org/2000/svg" width="16" height="12" viewBox="0 0 16 12"><path fill="#d0d0d0" d="M15.929 6.37c-.092.231-2.32 5.63-7.937 5.63C2.374 12 .148 6.6.056 6.37a1.005 1.005 0 010-.742C.148 5.398 2.374 0 7.992 0s7.845 5.398 7.937 5.628c.094.238.094.505 0 .743zm-2.034-.373C13.355 4.933 11.545 2 7.992 2 4.462 2 2.63 4.948 2.089 6.002 2.629 7.066 4.439 10 7.992 10c3.53 0 5.362-2.949 5.903-4.003zm-3.9.002A2.001 2.001 0 015.99 6a2 2 0 012.002-2c1.106 0 2.002.896 2.002 2z"/></svg>