<?xml version="1.0" encoding="utf-8"?><svg xmlns="http://www.w3.org/2000/svg" width="16" height="23" viewBox="0 0 16 23"><defs><clipPath id="ka"><path fill="#fff" d="M8 0a8 8 0 018 8v7a8 8 0 01-8 8 8 8 0 01-8-8V8a8 8 0 018-8z"/></clipPath><clipPath id="kb"><path fill="#fff" d="M9 5.999v4"/></clipPath></defs><path fill="none" stroke="#fff" stroke-miterlimit="20" stroke-width="4" d="M8 0a8 8 0 018 8v7a8 8 0 01-8 8 8 8 0 01-8-8V8a8 8 0 018-8z" clip-path="url(#ka)"/><path fill="none" stroke="#fff" stroke-miterlimit="20" stroke-width="4" d="M9 5.999v4" clip-path="url(#kb)"/></svg>