<?xml version="1.0" encoding="utf-8"?><svg xmlns="http://www.w3.org/2000/svg" width="18" height="20" viewBox="0 0 18 20"><path fill="#fff" d="M16.762 6.868a8.792 8.792 0 00-1.325-1.68.688.688 0 00-.95-.01.637.637 0 00-.011.92c.434.43.814.912 1.128 1.43a7.233 7.233 0 011.052 3.754c0 4.09-3.435 7.416-7.657 7.416-4.221 0-7.656-3.327-7.656-7.417 0-4.088 3.434-7.416 7.656-7.416.109 0 .203-.004.295-.01L7.431 6.018a.622.622 0 00.098.906c.29.225.717.185.954-.09l2.7-3.135a.612.612 0 00.138-.51.625.625 0 00-.242-.473L7.765.139a.703.703 0 00-.954.089.623.623 0 00.097.906l1.854 1.442C3.91 2.698-.001 6.552-.001 11.282c0 4.806 4.038 8.717 9 8.717 4.963 0 9-3.911 9-8.717a8.503 8.503 0 00-1.237-4.414z"/></svg>