<?xml version="1.0" encoding="utf-8"?><svg xmlns="http://www.w3.org/2000/svg" width="16" height="12" viewBox="0 0 16 12"><path fill="#fff" d="M15.929 6.37c-.092.231-2.32 5.63-7.937 5.63C2.374 12 .147 6.6.056 6.37a1.004 1.004 0 010-.742C.147 5.398 2.374 0 7.992 0s7.845 5.398 7.937 5.628c.094.239.094.504 0 .743zm-2.034-.373C13.355 4.933 11.545 2 7.992 2 4.462 2 2.63 4.947 2.09 6.003 2.629 7.066 4.439 10 7.992 10c3.53 0 5.362-2.948 5.903-4.003zM9.995 6A2.002 2.002 0 015.99 6a2 2 0 012.002-2 2 2 0 012.002 2z"/></svg>