<?xml version="1.0" encoding="utf-8"?><svg viewBox="0 0 64 64" xmlns="http://www.w3.org/2000/svg" xmlns:xlink="http://www.w3.org/1999/xlink"><style>:root>svg{display:none}:root>svg:target{display:block}</style><svg viewBox="0 0 10 5" id="arrow" xmlns="http://www.w3.org/2000/svg"><defs><clipPath id="aa"><path fill="#fff" d="M1.87 1.158l3.135 3.365L8.14 1.158"/></clipPath></defs><path fill="none" stroke="#6e9fe9" stroke-linecap="round" stroke-miterlimit="20" stroke-width="2" d="M1.87 1.158v0l3.135 3.365v0L8.14 1.158v0" clip-path="url(#aa)"/></svg><svg viewBox="0 0 16 16" id="blue-comment" xmlns="http://www.w3.org/2000/svg"><path fill="#769fe2" d="M16 1v10a1 1 0 01-1 1H8.414l-3.707 3.707A1 1 0 013 15v-3H1a1 1 0 01-1-1V1a1 1 0 011-1h14a1 1 0 011 1zm-2 1H2v8h2a1 1 0 011 1v1.586l2.293-2.293A.997.997 0 018 10h6z"/></svg><svg viewBox="0 0 16 12" id="blue-envelope" xmlns="http://www.w3.org/2000/svg"><path fill="#769fe2" d="M16 .999v10a1 1 0 01-1 1H1a1 1 0 01-1-1V1a1 1 0 011-1h14a1 1 0 011 1zm-14 1v.067l6 4.667 6-4.667v-.067zm12 8v-5.4L8.614 8.788a.996.996 0 01-1.228 0L2 4.598v5.4z"/></svg><svg viewBox="0 0 29 32" id="cocktail" xmlns="http://www.w3.org/2000/svg"><path fill="#769fe2" d="M29 6.5c0 3.583-2.904 6.5-6.476 6.5a6.407 6.407 0 01-3.323-.942l-6.164 7.32v10.62h3.003a1 1 0 110 2h-3.993l-.005.002-.004-.001H8.044a1.001 1.001 0 110-2h3.003V19.378L.36 6.688a.975.975 0 01-.208-1.07.996.996 0 01.918-.603h15.16c.67-2.87 3.232-5.016 6.294-5.016C26.096 0 29 2.916 29 6.5zm-8.36.482H3.444l8.598 10.642zm6.369-.483c0-2.485-2.01-4.5-4.49-4.5-1.957 0-3.594 1.265-4.204 3.016h4.699c.4 0 .763.238.918.603a.976.976 0 01-.208 1.07l-3.218 3.821a4.4 4.4 0 002.012.49c2.48 0 4.49-2.015 4.49-4.5z"/></svg><svg viewBox="0 0 16 16" id="comment" xmlns="http://www.w3.org/2000/svg"><path fill="#d0d0d0" d="M16 1v10a1 1 0 01-1 1H8.414l-3.707 3.707A1 1 0 013 14.999v-3H1a1 1 0 01-1-1V1a1 1 0 011-1h14a1 1 0 011 1zm-2 1H2v8h2a1 1 0 011 1v1.585l2.293-2.292A.997.997 0 018 10h6z"/></svg><svg viewBox="0 0 16 12" id="eye" xmlns="http://www.w3.org/2000/svg"><path fill="#d0d0d0" d="M15.929 6.37c-.092.231-2.32 5.63-7.937 5.63C2.374 12 .148 6.6.056 6.37a1.005 1.005 0 010-.742C.148 5.398 2.374 0 7.992 0s7.845 5.398 7.937 5.628c.094.238.094.505 0 .743zm-2.034-.373C13.355 4.933 11.545 2 7.992 2 4.462 2 2.63 4.948 2.089 6.002 2.629 7.066 4.439 10 7.992 10c3.53 0 5.362-2.949 5.903-4.003zm-3.9.002A2.001 2.001 0 015.99 6a2 2 0 012.002-2c1.106 0 2.002.896 2.002 2z"/></svg><svg viewBox="0 0 16 16" id="file" xmlns="http://www.w3.org/2000/svg"><path fill="#fff" d="M16 1v12a3 3 0 01-3 3H3a3 3 0 01-3-3V7a1 1 0 011-1h3V1a1 1 0 011-1h10a1 1 0 011 1zM4 8H2v5a1 1 0 102 0zm10-6H6v12h7a1 1 0 001-1zM8 5a1 1 0 011-1h2a1 1 0 110 2H9a1 1 0 01-1-1zm0 4a1 1 0 011-1h2a1 1 0 110 2H9a1 1 0 01-1-1z"/></svg><svg viewBox="0 0 32 32" id="flag" xmlns="http://www.w3.org/2000/svg"><path fill="#769fe2" d="M1 0a1 1 0 011 1v30a1 1 0 01-2 0V1a1 1 0 011-1zm3 2s3.59 3 8.969 3c4.108 0 6.067-3 10.045-3C28.007 2 32 5 32 5v17s-3.959-3-8.951-3c-3.516 0-6.002 3-10.063 3C7.977 22 4 19 4 19zm2.01 16.207C7.651 19.04 10.154 20 12.986 20c4.061 0 6.547-3 10.063-3 2.837 0 5.34.969 6.972 1.805 0-3.605-.054-6.525-.054-13.02C28.324 4.952 25.828 4 23.014 4c-3.978 0-5.937 3-10.045 3-2.97 0-5.394-.914-6.97-1.733 0 4.167.012 10.18.012 12.94z"/></svg><svg viewBox="0 0 14 16" id="light-bulb" xmlns="http://www.w3.org/2000/svg"><path fill="#76a0e2" d="M10 15a1 1 0 01-1 1H5a1 1 0 110-2h4a1 1 0 011 1zm4-8a6.98 6.98 0 01-2.967 5.712c-.144.101-.486.288-1.033.288H4c-.656 0-.89-.188-1.034-.29A6.98 6.98 0 010 7a7 7 0 0114 0zm-2 0A5 5 0 102 7c0 1.643.804 3.089 2.027 4H6V7a1 1 0 112 0v4h1.973C11.196 10.089 12 8.643 12 7z"/></svg><svg viewBox="0 0 30 55" id="loading" xmlns="http://www.w3.org/2000/svg"><defs><clipPath id="ja"><path fill="#fff" d="M2.5 3C16.03 3 27 13.967 27 27.5 27 41.03 16.03 52 2.5 52"/></clipPath></defs><path fill="none" stroke="#000" stroke-linecap="round" stroke-miterlimit="20" stroke-width="10" d="M2.5 3C16.03 3 27 13.967 27 27.5 27 41.03 16.03 52 2.5 52" clip-path="url(#ja)"/></svg><svg viewBox="0 0 16 23" id="mouse" xmlns="http://www.w3.org/2000/svg"><defs><clipPath id="ka"><path fill="#fff" d="M8 0a8 8 0 018 8v7a8 8 0 01-8 8 8 8 0 01-8-8V8a8 8 0 018-8z"/></clipPath><clipPath id="kb"><path fill="#fff" d="M9 5.999v4"/></clipPath></defs><path fill="none" stroke="#fff" stroke-miterlimit="20" stroke-width="4" d="M8 0a8 8 0 018 8v7a8 8 0 01-8 8 8 8 0 01-8-8V8a8 8 0 018-8z" clip-path="url(#ka)"/><path fill="none" stroke="#fff" stroke-miterlimit="20" stroke-width="4" d="M9 5.999v4" clip-path="url(#kb)"/></svg><svg viewBox="0 0 12 16" id="ribbon" xmlns="http://www.w3.org/2000/svg"><path fill="#fff" d="M11 16a1 1 0 01-.707-.293L6 11.414l-4.293 4.293A1 1 0 010 15V1a1 1 0 011-1h10a1 1 0 011 1v14a.999.999 0 01-1 1zM6 9c.256 0 .512.097.707.293L10 12.586V2H2v10.586l3.293-3.293A.997.997 0 016 8.999z"/></svg><svg viewBox="0 0 16 16" id="search" xmlns="http://www.w3.org/2000/svg"><path fill="#6e9fe9" d="M15.707 15.706a.999.999 0 01-1.414 0l-3.106-3.107A6.963 6.963 0 017 14a7 7 0 117-7 6.96 6.96 0 01-1.4 4.186l3.107 3.107a1 1 0 010 1.414zM12 6.998A5 5 0 007 2a5 5 0 100 10 5 5 0 005-5z"/></svg><svg viewBox="0 0 16 16" id="white-comment" xmlns="http://www.w3.org/2000/svg"><path fill="#fff" d="M16 1v10a1 1 0 01-1 1H8.414l-3.707 3.707A1 1 0 013 15v-3H1a1 1 0 01-1-1V1a1 1 0 011-1h14a1 1 0 011 1zm-2 1H2v8h2a1 1 0 011 1v1.585l2.293-2.293A.997.997 0 018 10h6z"/></svg><svg viewBox="0 0 16 12" id="white-eye" xmlns="http://www.w3.org/2000/svg"><path fill="#fff" d="M15.929 6.37c-.092.231-2.32 5.63-7.937 5.63C2.374 12 .147 6.6.056 6.37a1.004 1.004 0 010-.742C.147 5.398 2.374 0 7.992 0s7.845 5.398 7.937 5.628c.094.239.094.504 0 .743zm-2.034-.373C13.355 4.933 11.545 2 7.992 2 4.462 2 2.63 4.947 2.09 6.003 2.629 7.066 4.439 10 7.992 10c3.53 0 5.362-2.948 5.903-4.003zM9.995 6A2.002 2.002 0 015.99 6a2 2 0 012.002-2 2 2 0 012.002 2z"/></svg><svg viewBox="0 0 64 64" fill="#fff" id="white-quotes" xmlns="http://www.w3.org/2000/svg"><path d="M14.193 9.412C6.367 9.412.001 15.778.001 23.604c0 7.55 5.925 13.742 13.37 14.17.128 1.392.031 5.18-3.599 10.45a1 1 0 00.117 1.274c1.485 1.485 2.403 2.42 3.046 3.075.84.855 1.224 1.246 1.786 1.756a.997.997 0 001.328.014C22.374 48.84 29.4 37.467 28.384 23.532c-.596-8.182-6.564-14.12-14.19-14.12zm1.21 42.81c-.273-.268-.584-.585-1.042-1.05a417.05 417.05 0 00-2.478-2.507c4.405-6.789 3.573-11.623 3.209-12.317a1.036 1.036 0 00-.899-.55c-6.722 0-12.192-5.47-12.192-12.194 0-6.723 5.47-12.192 12.192-12.192 6.55 0 11.678 5.158 12.197 12.264 1.142 15.674-8.173 25.85-10.988 28.546zM63.9 23.532v-.001c-.597-8.18-6.566-14.12-14.191-14.12-7.826 0-14.193 6.367-14.193 14.193 0 7.55 5.925 13.742 13.37 14.17.13 1.39.032 5.177-3.599 10.45a1 1 0 00.116 1.274c1.48 1.48 2.396 2.413 3.038 3.066.845.861 1.23 1.254 1.795 1.766a1.002 1.002 0 001.328.012c6.326-5.504 13.352-16.876 12.336-30.81zm-12.982 28.69a95.14 95.14 0 01-1.05-1.06c-.556-.566-1.317-1.341-2.47-2.497 4.405-6.79 3.574-11.623 3.21-12.317a1.04 1.04 0 00-.899-.55c-6.724 0-12.193-5.47-12.193-12.194 0-6.723 5.47-12.192 12.193-12.192 6.548 0 11.678 5.158 12.197 12.265 1.142 15.671-8.174 25.85-10.988 28.545z"/></svg><svg viewBox="0 0 18 20" id="white-reload" xmlns="http://www.w3.org/2000/svg"><path fill="#fff" d="M16.762 6.868a8.792 8.792 0 00-1.325-1.68.688.688 0 00-.95-.01.637.637 0 00-.011.92c.434.43.814.912 1.128 1.43a7.233 7.233 0 011.052 3.754c0 4.09-3.435 7.416-7.657 7.416-4.221 0-7.656-3.327-7.656-7.417 0-4.088 3.434-7.416 7.656-7.416.109 0 .203-.004.295-.01L7.431 6.018a.622.622 0 00.098.906c.29.225.717.185.954-.09l2.7-3.135a.612.612 0 00.138-.51.625.625 0 00-.242-.473L7.765.139a.703.703 0 00-.954.089.623.623 0 00.097.906l1.854 1.442C3.91 2.698-.001 6.552-.001 11.282c0 4.806 4.038 8.717 9 8.717 4.963 0 9-3.911 9-8.717a8.503 8.503 0 00-1.237-4.414z"/></svg></svg>