<svg xmlns="http://www.w3.org/2000/svg" width="29" height="32" viewBox="0 0 29 32"><g><g><path fill="#769fe2" d="M29 6.5c0 3.583-2.904 6.5-6.476 6.5a6.407 6.407 0 0 1-3.323-.942l-6.164 7.32v10.62h3.003a1 1 0 1 1 0 2h-3.993l-.005.002-.004-.001H8.044a1.001 1.001 0 1 1 0-2h3.003V19.378L.36 6.688a.975.975 0 0 1-.208-1.07.996.996 0 0 1 .918-.603h15.16c.67-2.87 3.232-5.016 6.294-5.016C26.096 0 29 2.916 29 6.5zm-8.36.482H3.444l8.598 10.642zm6.369-.483c0-2.485-2.01-4.5-4.49-4.5-1.957 0-3.594 1.265-4.204 3.016h4.699c.4 0 .763.238.918.603a.976.976 0 0 1-.208 1.07l-3.218 3.821a4.4 4.4 0 0 0 2.012.49c2.48 0 4.49-2.015 4.49-4.5z"/></g></g></svg>