<svg xmlns="http://www.w3.org/2000/svg" width="32" height="32" viewBox="0 0 32 32"><g><g><path fill="#769fe2" d="M1 0a1 1 0 0 1 1 1v30a1 1 0 0 1-2 0V1a1 1 0 0 1 1-1zm3 2s3.59 3 8.969 3c4.108 0 6.067-3 10.045-3C28.007 2 32 5 32 5v17s-3.959-3-8.951-3c-3.516 0-6.002 3-10.063 3C7.977 22 4 19 4 19zM6.01 18.207C7.651 19.04 10.154 20 12.986 20c4.061 0 6.547-3 10.063-3 2.837 0 5.34.969 6.972 1.805 0-3.605-.054-6.525-.054-13.02C28.324 4.952 25.828 4 23.014 4c-3.978 0-5.937 3-10.045 3-2.97 0-5.394-.914-6.97-1.733 0 4.167.012 10.18.012 12.94z"/></g></g></svg>