<svg xmlns="http://www.w3.org/2000/svg" width="16" height="23" viewBox="0 0 16 23"><defs><clipPath id="cbe8a"><path fill="#fff" d="M8 0a8 8 0 0 1 8 8v7a8 8 0 0 1-8 8 8 8 0 0 1-8-8V8a8 8 0 0 1 8-8z"/></clipPath><clipPath id="cbe8b"><path fill="#fff" d="M9 5.999v4"/></clipPath></defs><g><g><path fill="none" stroke="#fff" stroke-miterlimit="20" stroke-width="4" d="M8 0a8 8 0 0 1 8 8v7a8 8 0 0 1-8 8 8 8 0 0 1-8-8V8a8 8 0 0 1 8-8z" clip-path="url(&quot;#cbe8a&quot;)"/></g><g><path fill="none" stroke="#fff" stroke-miterlimit="20" stroke-width="4" d="M9 5.999v4" clip-path="url(&quot;#cbe8b&quot;)"/></g></g></svg>